<svg xmlns="http://www.w3.org/2000/svg" fill="currentColor" viewBox="0 0 400 321.67832168">
  <g fill-rule="evenodd">
    <path d="M333.709 56.476c-.245.295-.95.483-1.81.483-2.721 0-2.695-.101-2.695 10.661v9.373l-2.123 2.051-2.122 2.05h-2.992c-2.363 0-3.031-.101-3.177-.483-.102-.265-.493-.482-.868-.482-.782 0-1.886-1.173-1.902-2.022-.006-.315-.228-.656-.493-.758-.403-.155-.483-1.086-.483-5.622v-5.436h-1.091c-1.201 0-6.31 4.533-6.31 5.598 0 .284-.579 1.079-1.287 1.766s-1.288 1.457-1.288 1.71c0 .253-.434.876-.965 1.385-.531.509-.965 1.17-.965 1.469 0 .299-.218.724-.483.944-.266.221-.483.655-.483.966 0 .31-.217.745-.483.965-.265.22-.482.655-.482.966 0 .31-.217.745-.483.965-.265.22-.483.872-.483 1.448s-.217 1.228-.482 1.448c-.306.254-.483.964-.483 1.936 0 1.068-.147 1.592-.483 1.72-.338.13-.482.658-.482 1.765 0 1.012-.174 1.724-.483 1.981-.427.354-.483 10.349-.483 86.408 0 76.155-.055 86.03-.483 86.194-.265.102-.482.469-.482.816 0 .847-2.004 2.929-2.82 2.929-.358 0-.735.217-.836.483-.165.428-13.727.483-119.389.483-105.662 0-119.224.054-119.389.482-.143.373-.767.483-2.75.483-1.411 0-2.655.145-2.765.322-.109.177-.919.322-1.799.322-1.125 0-1.655.143-1.785.482-.113.293-.599.483-1.238.483-.579 0-1.233.217-1.453.483-.22.265-.655.482-.965.482-.311 0-.745.218-.966.483-.22.266-.655.483-.965.483-.311 0-.745.217-.966.482-.22.266-.654.483-.965.483-.311 0-.745.217-.965.483-.221.265-.646.483-.945.483-.299 0-.96.434-1.469.965-.509.531-1.153.965-1.432.965-.656 0-9.992 9.344-9.992 10 0 .275-.434.916-.965 1.424-.531.509-.966 1.161-.966 1.448 0 .288-.434.94-.965 1.449-.531.508-.965 1.169-.965 1.469 0 .299-.218.724-.483.944-.266.22-.483.872-.483 1.448s-.217 1.228-.483 1.448c-.265.221-.482.677-.482 1.015 0 .338-.218.698-.483.8-.345.132-.483.671-.483 1.886 0 1.242-.135 1.753-.5 1.893-.377.145-.476.571-.402 1.724l.098 1.532 23.001.083 23.001.082 1.697 1.676c.934.922 1.697 1.917 1.697 2.211 0 .295.211.71.468.923.282.234.505 1.112.563 2.212l.096 1.823h42.478l.095-1.823c.058-1.1.282-1.978.563-2.212.258-.213.468-.63.468-.927 0-.677 2.266-2.922 2.951-2.922.28 0 .69-.217.911-.482.354-.428 12.872-.483 109.111-.483 72.127 0 108.777-.108 108.909-.322.11-.177 1.354-.322 2.765-.322 1.983 0 2.607-.109 2.751-.483.119-.311.617-.482 1.403-.482s1.284-.171 1.404-.483c.114-.298.604-.483 1.282-.483.603 0 1.277-.217 1.498-.482.22-.266.872-.483 1.448-.483s1.228-.217 1.448-.483c.22-.265.655-.482.965-.482.311 0 .745-.218.966-.483.22-.266.645-.483.944-.483.299 0 .96-.434 1.469-.965.509-.531 1.126-.966 1.372-.966.246 0 .882-.434 1.413-.965.531-.531 1.188-.965 1.46-.965.659 0 8.141-7.622 8.158-8.311.008-.297.442-.894.966-1.328.523-.435.957-1.086.965-1.449.007-.362.442-1.013.965-1.448.524-.434.952-1.032.952-1.328 0-.296.217-.719.483-.939.265-.221.483-.655.483-.966 0-.31.217-.745.482-.965.266-.221.483-.664.483-.986 0-.322.145-.675.322-.784.177-.109.322-.68.322-1.267 0-.587.217-1.248.482-1.468.309-.257.483-.969.483-1.981 0-1.107.144-1.635.483-1.765.358-.137.482-.706.482-2.203 0-1.401.148-2.14.483-2.418.426-.354.483-7.243.483-58.447v-58.046h-1.268c-.698 0-1.358.145-1.468.322-.109.177-.462.322-.784.322-.321 0-.765.217-.985.483-.221.265-.895.482-1.498.482-.678 0-1.168.185-1.282.483-.14.363-.724.483-2.364.483-1.544 0-2.296-.141-2.58-.483-.22-.265-.65-.483-.955-.483-.668 0-1.619-.984-1.619-1.675 0-.274-.217-.679-.483-.899-.265-.22-.482-.655-.482-.965 0-.311-.218-.745-.483-.966-.305-.253-.483-.963-.483-1.931 0-.967.178-1.677.483-1.93.265-.221.483-.642.483-.937 0-.679 2.908-3.569 3.591-3.569.282 0 .693-.217.914-.482.22-.266.655-.483.965-.483.311 0 .745-.217.966-.483.22-.265.654-.482.965-.482.311 0 .745-.218.965-.483.221-.266.643-.483.938-.483.296 0 1.177-.652 1.959-1.448.781-.796 1.629-1.448 1.884-1.448.587 0 9.057-8.504 9.057-9.094 0-.242.434-.856.965-1.365.531-.508.966-1.169.966-1.469 0-.299.217-.724.482-.944.266-.221.483-.655.483-.966 0-.31.217-.745.483-.965.265-.22.482-.655.482-.965 0-.311.218-.745.483-.966.266-.22.483-.655.483-.965 0-.311.217-.745.483-.966.265-.22.482-.872.482-1.448s.218-1.228.483-1.448c.265-.22.483-.874.483-1.453 0-.639.189-1.125.482-1.238.361-.138.483-.713.483-2.268 0-1.145.145-2.172.322-2.281.196-.121.322-2.518.322-6.115 0-3.596-.126-5.993-.322-6.114-.177-.109-.322-1.041-.322-2.071 0-1.272-.155-2.001-.483-2.273-.305-.254-.482-.963-.482-1.931 0-.968-.178-1.678-.483-1.931-.265-.22-.483-.872-.483-1.448s-.217-1.228-.482-1.448c-.266-.22-.483-.677-.483-1.015 0-.338-.217-.698-.483-.8-.265-.101-.483-.536-.483-.965 0-.429-.217-.863-.482-.965-.266-.102-.489-.496-.497-.875-.007-.379-.441-1.045-.965-1.479-.523-.434-.952-1.057-.952-1.383 0-.327-.362-.929-.804-1.339-.443-.411-.805-.962-.805-1.226 0-.69-6.025-6.687-6.719-6.687-1.395 0-1.648.897-1.648 5.859 0 3.769-.094 4.76-.482 5.083-.266.22-.483.647-.483.948 0 .672-1.305 1.948-1.993 1.948-.276 0-.683.217-.903.482-.303.365-1.122.483-3.356.483h-2.956l-1.993-2.053-1.993-2.052v-9.372c0-10.853.052-10.658-2.862-10.658-1.102 0-1.63-.145-1.759-.483-.158-.41-1.337-.482-7.88-.482-6.446 0-7.759.078-8.094.482M142.675 82.542c-.114.296-.602.483-1.26.483-1.222 0-5.293 3.699-5.293 4.81 0 .326-.217.675-.482.777-.416.16-.483 1.693-.483 11.08v10.896l.745.699c.409.385.971.7 1.247.7.277 0 .684.217.904.483.22.265.642.483.937.483.976 0 3.568 2.959 3.568 4.074 0 .548.218 1.176.483 1.396.266.221.483.872.483 1.448s-.217 1.228-.483 1.448c-.265.221-.483.859-.483 1.42 0 1.118-2.6 4.051-3.592 4.051-.282 0-.693.217-.913.483-.22.265-.655.482-.965.482-.311 0-.745.218-.966.483-.335.404-1.643.483-8.05.483-6.502 0-7.677-.073-7.834-.483-.102-.265-.462-.483-.8-.483s-.794-.217-1.015-.482c-.22-.266-.641-.483-.935-.483-1.001 0-3.892-3.28-3.892-4.416 0-.559-.145-1.106-.322-1.216-.177-.109-.321-.769-.321-1.467 0-.697.144-1.268.321-1.268.177 0 .322-.272.322-.604 0-.332.217-.785.483-1.005.265-.22.483-.643.483-.939 0-.678 2.266-2.922 2.95-2.922.281 0 .691-.218.911-.483.221-.266.636-.485.925-.488 1.125-.012 2.015-1.465 1.909-3.116l-.099-1.545-9.047-.085c-7.761-.074-9.105-.016-9.452.402-.285.343-1.017.488-2.467.488-1.537 0-2.11.123-2.248.482-.119.312-.617.483-1.403.483s-1.284.171-1.404.483c-.102.265-.536.482-.965.482-.429 0-.864.218-.966.483-.102.266-.461.483-.799.483s-.795.217-1.015.482c-.221.266-.863.483-1.428.483-.72 0-1.302.288-1.951.966-.509.531-1.17.965-1.469.965-.299 0-.724.217-.945.483-.22.265-.638.482-.928.482-.67 0-10.978 10.296-10.978 10.965 0 .275-.435.916-.966 1.425-.531.508-.965 1.169-.965 1.469 0 .299-.217.724-.483.944-.265.221-.483.655-.483.966 0 .31-.217.745-.482.965-.266.22-.483.655-.483.965 0 .311-.217.746-.483.966-.265.22-.482.664-.482.986 0 .322-.145.674-.322.784-.177.109-.322.702-.322 1.316 0 .696-.182 1.187-.483 1.303-.293.112-.482.599-.482 1.237 0 .579-.218 1.233-.483 1.454-.359.297-.483 1.092-.483 3.096v2.696h1.253c.817 0 1.317.168 1.438.483.13.338.658.482 1.765.482 1.012 0 1.724.174 1.98.483.221.266.872.483 1.448.483.577 0 1.228.217 1.448.482.254.306.964.483 1.936.483 1.068 0 1.592.147 1.721.483.13.338.657.483 1.765.483 1.011 0 1.723.173 1.98.482.255.307.965.483 1.951.483.853 0 1.64.145 1.75.322.109.177.919.322 1.799.322 1.125 0 1.655.143 1.785.482.121.316.622.483 1.448.483s1.327.167 1.448.483c.129.335.653.482 1.721.482.972 0 1.682.177 1.935.483.254.305.964.483 1.931.483.968 0 1.678.177 1.931.483.254.305.964.482 1.936.482 1.068 0 1.591.147 1.72.483.121.316.623.483 1.448.483.826 0 1.327.167 1.448.482.13.339.658.483 1.765.483 1.012 0 1.724.174 1.981.483.253.305.963.482 1.931.482.967 0 1.677.178 1.93.483.254.306.964.483 1.936.483 1.068 0 1.592.147 1.721.483.115.3.606.482 1.302.482.615 0 1.207.145 1.316.322.11.177.897.322 1.75.322.986 0 1.697.176 1.951.483.257.309.969.482 1.981.482 1.107 0 1.635.145 1.764.483.129.336.653.483 1.721.483.972 0 1.682.177 1.936.482.22.266.872.483 1.448.483s1.228.217 1.448.483c.665.801 1.404.555 2.896-.966.782-.796 1.663-1.448 1.959-1.448.295 0 .717-.217.937-.482.221-.266.664-.483.986-.483.322 0 .675-.145.784-.322.11-.177.702-.322 1.317-.322.696 0 1.187-.182 1.302-.482.267-.695 5.333-.695 5.909 0 .22.265.89.482 1.487.482.598 0 1.087.145 1.087.322 0 .177.496.322 1.101.322.882 0 1.377.286 2.494 1.443.766.793 1.599 1.445 1.851 1.448.251.003.734.255 1.072.562.583.527.631.527.926 0 .228-.408.727-.557 1.865-.557.989 0 1.7-.176 1.954-.483.254-.305.964-.482 1.931-.482.968 0 1.678-.178 1.931-.483.22-.266.828-.483 1.35-.483.522 0 1.166-.217 1.431-.482.282-.282 1.068-.483 1.889-.483.774 0 1.496-.145 1.605-.322.11-.177.897-.322 1.75-.322.985 0 1.696-.176 1.951-.482.257-.31.969-.483 1.98-.483 1.108 0 1.635-.145 1.765-.483.12-.311.618-.483 1.404-.483.786 0 1.284-.171 1.403-.482.13-.339.658-.483 1.765-.483 1.012 0 1.724-.174 1.981-.483.253-.305.963-.482 1.93-.482.968 0 1.678-.178 1.931-.483.221-.266.895-.483 1.498-.483.678 0 1.168-.184 1.282-.482.132-.345.671-.483 1.886-.483 1.216 0 1.754-.138 1.887-.483.13-.338.657-.483 1.765-.483 1.011 0 1.723-.173 1.98-.482.246-.297.952-.483 1.832-.483.844 0 1.63-.198 1.915-.483.265-.265.979-.482 1.586-.482.606 0 1.103-.145 1.103-.322 0-.177.706-.322 1.57-.322 1.002 0 1.714-.174 1.97-.483.253-.305.963-.482 1.931-.482.967 0 1.677-.178 1.93-.483.257-.309.969-.483 1.981-.483 1.107 0 1.635-.144 1.765-.483.119-.311.617-.482 1.403-.482s1.284-.171 1.404-.483c.13-.338.657-.483 1.765-.483 1.011 0 1.724-.173 1.98-.482.251-.303.96-.483 1.899-.483 2.235 0 2.606-.598 2.606-4.197 0-2.284.103-2.942.483-3.088.347-.133.483-.676.483-1.931s.135-1.798.482-1.931c.293-.112.483-.599.483-1.237 0-.579.217-1.233.483-1.454.265-.22.483-.654.483-.965 0-.311.217-.745.482-.965.266-.221.483-.872.483-1.448 0-.577.217-1.228.483-1.449.265-.22.482-.654.482-.965 0-.311.218-.745.483-.965.266-.221.483-.655.483-.966 0-.31.217-.745.482-.965.266-.221.483-.595.483-.833s.435-.877.966-1.42c.531-.543.965-1.272.965-1.62 0-.348.145-.632.322-.632.177 0 .322-.296.322-.658 0-.38.813-1.449 1.93-2.535 1.062-1.033 1.931-2.11 1.931-2.393 0-.284 1.116-1.614 2.48-2.956 3.827-3.765 4.832-3.51-14.25-3.609-13.822-.072-16.081-.15-16.312-.564-.148-.263-.522-.479-.833-.479-.694 0-2.621-1.934-2.621-2.631 0-.28-.218-.689-.483-.909-.266-.22-.485-.854-.488-1.407-.002-.554-.145-1.224-.317-1.489-.226-.35-.313-.068-.316 1.023-.003.915.184 1.694.477 1.988.266.265.483.727.483 1.026 0 .706 2.337 3.042 3.042 3.042.299 0 .761.218 1.026.483.417.416 2.68.483 16.389.483 11.382 0 15.907.101 15.907.355 0 .195-1.014 1.358-2.253 2.585-1.239 1.227-2.253 2.442-2.253 2.7 0 .259-.868 1.318-1.93 2.354-1.117 1.089-1.931 2.161-1.931 2.542 0 .362-.217.741-.483.843-.265.102-.483.486-.483.854s-.362 1.005-.804 1.415c-.443.41-.805 1.039-.805 1.398s-.217.736-.482.838c-.266.102-.483.552-.483 1 0 .51-.181.815-.483.815-.322 0-.482.322-.482.965 0 .644-.161.966-.483.966-.358 0-.483.375-.483 1.448 0 1.072-.125 1.448-.483 1.448-.302 0-.482.305-.482.814 0 .448-.217.898-.483 1-.311.12-.483.618-.483 1.404 0 .786-.171 1.284-.482 1.403-.347.134-.483.676-.483 1.931s-.136 1.798-.483 1.931c-.38.146-.482.805-.482 3.092 0 3.602-.408 4.193-2.897 4.193-1.215 0-1.609.118-1.609.483 0 .371-.412.483-1.78.483-1.285 0-1.831.134-1.965.482-.119.312-.617.483-1.404.483-.786 0-1.284.171-1.403.483-.134.348-.68.482-1.965.482-.979 0-1.78.145-1.78.322 0 .177-.707.322-1.57.322-1.003 0-1.714.174-1.97.483-.257.309-.969.482-1.981.482-1.107 0-1.635.145-1.764.483-.122.316-.623.483-1.449.483-.825 0-1.327.167-1.448.482-.132.345-.671.483-1.886.483-1.215 0-1.754.138-1.886.483-.134.348-.68.483-1.965.483-1.368 0-1.781.111-1.781.482s-.412.483-1.78.483c-1.285 0-1.831.134-1.965.483-.121.314-.621.482-1.438.482-.899 0-1.253.137-1.253.483 0 .376-.429.483-1.93.483-1.502 0-1.931.107-1.931.483 0 .37-.412.482-1.78.482-1.286 0-1.832.134-1.965.483-.121.315-.622.483-1.438.483-.689 0-1.253.144-1.253.321 0 .177-.714.322-1.586.322-.981 0-1.77.184-2.069.483-.289.289-1.076.483-1.964.483-1.02 0-1.539.15-1.666.482-.133.347-.676.483-1.931.483s-1.798.136-1.931.483c-.121.315-.622.482-1.448.482s-1.327.168-1.448.483c-.133.347-.675.483-1.921.483-1.328 0-1.735.113-1.735.483 0 .368-.404.482-1.706.482-.938 0-1.879.174-2.092.386-.3.301-.386.301-.386 0 0-.212-.292-.386-.649-.386-.357 0-1.273-.651-2.036-1.448-1.137-1.186-1.596-1.448-2.535-1.448-.723 0-1.215-.179-1.332-.483-.115-.298-.604-.482-1.282-.482-.604 0-1.278-.218-1.498-.483-.294-.354-1.072-.483-2.913-.483-1.803 0-2.648.136-2.994.483-.266.265-1.005.483-1.642.483-.734 0-1.228.177-1.345.482-.102.266-.536.483-.966.483-.429 0-.863.217-.965.483-.102.265-.532.482-.955.482-.47 0-.77.189-.77.483 0 .266-.218.483-.483.483s-.483.217-.483.483c0 .265-.217.482-.482.482-.266 0-.483.217-.483.483 0 .268-.286.483-.644.483-.357 0-.643-.215-.643-.483 0-.346-.354-.483-1.253-.483-.817 0-1.317-.168-1.438-.482-.133-.347-.676-.483-1.931-.483s-1.798-.136-1.931-.483-.676-.483-1.931-.483c-1.254 0-1.797-.135-1.93-.482-.13-.339-.659-.483-1.77-.483-1.112 0-1.64-.144-1.77-.483-.117-.305-.611-.482-1.345-.482-.637 0-1.376-.218-1.642-.483-.282-.282-1.068-.483-1.889-.483-.773 0-1.495-.145-1.605-.322-.109-.177-.987-.321-1.95-.321-1.341 0-1.75-.113-1.75-.483 0-.371-.413-.483-1.78-.483-1.286 0-1.832-.134-1.966-.482-.119-.312-.617-.483-1.403-.483s-1.284-.171-1.404-.483c-.134-.348-.68-.483-1.965-.483-1.368 0-1.78-.111-1.78-.482s-.412-.483-1.78-.483c-1.286 0-1.832-.134-1.965-.483-.133-.345-.671-.482-1.887-.482-1.215 0-1.754-.138-1.886-.483-.121-.316-.622-.483-1.448-.483s-1.327-.167-1.448-.483c-.13-.338-.658-.482-1.765-.482-1.012 0-1.724-.174-1.98-.483-.247-.297-.953-.483-1.833-.483-.843 0-1.63-.198-1.914-.482-.299-.299-1.088-.483-2.069-.483-.872 0-1.586-.145-1.586-.322 0-.177-.796-.322-1.77-.322-1.359 0-1.77-.112-1.77-.482 0-.358-.375-.483-1.448-.483-1.072 0-1.448-.125-1.448-.483 0-.369-.407-.482-1.735-.482-1.246 0-1.788-.137-1.921-.483-.122-.319-.626-.483-1.483-.483h-1.297v-2.379c0-1.818.114-2.423.483-2.564.315-.121.482-.623.482-1.448 0-.826.168-1.327.483-1.448.316-.122.483-.623.483-1.449 0-.825.167-1.327.483-1.448.265-.102.482-.461.482-.799s.217-.795.483-1.015c.265-.22.483-.673.483-1.005 0-.332.144-.604.321-.604.177 0 .322-.435.322-.966 0-.643.161-.965.483-.965.322 0 .483-.322.483-.965 0-.644.161-.966.482-.966.266 0 .483-.217.483-.482 0-.266.217-.483.483-.483.265 0 .482-.278.482-.617 0-.349 1.396-2.028 3.219-3.873 1.769-1.791 3.218-3.396 3.218-3.567 0-.17.217-.31.482-.31.266 0 .483-.217.483-.483 0-.265.145-.482.322-.482.177 0 .901-.58 1.609-1.288.708-.708 1.581-1.287 1.941-1.287.359 0 .737-.217.839-.483.101-.265.459-.482.794-.482.643 0 1.896-1.064 1.896-1.609 0-.177.652-.322 1.448-.322 1.073 0 1.449-.125 1.449-.483 0-.302.305-.482.814-.482.448 0 .898-.218 1-.483.102-.266.536-.483.965-.483.43 0 .864-.217.966-.483.119-.311.617-.482 1.403-.482.787 0 1.284-.172 1.404-.483.14-.366.734-.483 2.448-.483 1.294 0 2.263-.137 2.263-.321 0-.207 3.164-.322 8.849-.322h8.85v1.283c0 1.494-.775 2.578-1.842 2.578-.403 0-.733.145-.733.322 0 .177-.265.322-.59.322-.829 0-3.271 2.34-3.271 3.134 0 .362-.217.742-.483.844-.265.102-.483.536-.483.965 0 .429-.217.864-.482.966-.332.127-.483.645-.483 1.653 0 1.009.151 1.527.483 1.654.301.115.482.606.482 1.306 0 1.377 2.75 4.281 4.053 4.281.474 0 .774.187.774.483 0 .301.305.482.815.482.448 0 .898.217 1 .483.158.411 1.39.483 8.357.483 7.049 0 8.171-.067 8.171-.483 0-.322.322-.483.965-.483.644 0 .966-.161.966-.482 0-.297.301-.483.782-.483 1.218 0 4.029-3.08 4.038-4.425.004-.575.152-1.046.329-1.046.177 0 .322-.796.322-1.77 0-.973-.145-1.77-.322-1.77-.177 0-.322-.483-.322-1.073 0-1.244-2.627-4.237-4.027-4.588-.44-.11-.8-.33-.8-.488 0-.158-.435-.287-.966-.287-.643 0-.965-.161-.965-.482 0-.266-.217-.483-.483-.483-.419 0-.482-1.409-.482-10.746 0-9.255.067-10.772.482-10.931.266-.102.483-.472.483-.821 0-1.147 4.043-4.855 5.293-4.855.658 0 1.146-.187 1.26-.483.161-.422 2.754-.483 20.639-.483 17.885 0 20.478.061 20.64.483.102.266.516.483.921.483s.819.217.921.482c.102.266.472.483.824.483 1.398 0 3.887 3.085 3.887 4.819 0 1.225.124 1.602.563 1.717.536.14.536.149 0 .185-.31.02-.563.254-.563.52 0 .424-2.589.482-21.366.482-18.694 0-21.388.061-21.55.483-.123.319-.627.483-1.483.483-.939 0-1.297.133-1.297.483 0 .265-.135.482-.299.482-.589 0-2.597 2.181-2.597 2.82 0 .358-.218.735-.483.836-.356.137-.483.699-.483 2.137 0 1.437.127 1.999.483 2.136.302.116.483.608.483 1.315 0 1.245 1.998 3.628 3.042 3.628.299 0 .761.218 1.026.483.42.42 3.34.483 22.339.483 20.215 0 21.904.041 22.503.554.762.653.849 1.377.164 1.377-.321 0-.482.321-.482.965 0 .858-.108.965-.966.965-.531 0-.965.129-.965.287 0 .158-.36.378-.8.488-1.018.255-4.027 3.323-4.027 4.105 0 .325-.145.591-.322.591-.189 0-.322 1.126-.322 2.735s.133 2.736.322 2.736c.177 0 .322.271.322.604 0 .332.217.784.482 1.005.266.22.483.685.483 1.032 0 .407.344.762.966.997.531.2.965.477.965.616 0 .138.217.251.483.251.265 0 .482.217.482.483 0 .357.376.482 1.449.482 1.072 0 1.448.125 1.448.483 0 .416 1.122.483 8.171.483 6.967 0 8.199-.072 8.357-.483.102-.266.552-.483 1-.483.509 0 .814-.181.814-.482 0-.299.303-.483.794-.483.943 0 3.068-1.99 3.068-2.873 0-.329.217-.681.483-.783.387-.149.482-.86.482-3.585 0-2.724-.095-3.436-.482-3.584-.266-.102-.483-.482-.483-.844 0-.794-2.443-3.134-3.272-3.134-.324 0-.59-.145-.59-.322 0-.177-.329-.322-.733-.322-1.62 0-1.841-.819-1.846-6.842-.003-3.7-.109-5.386-.317-5.064-1.43 2.213-.082 12.204 1.65 12.223.288.003.704.222.925.488.22.265.643.483.939.483.678 0 2.922 2.266 2.922 2.95 0 .281.217.691.483.911.358.297.483 1.089.483 3.057 0 1.969-.125 2.761-.483 3.057-.266.221-.483.644-.483.94 0 .678-2.266 2.922-2.951 2.922-.28 0-.69.217-.91.483-.221.265-.677.482-1.015.482-.338 0-.698.218-.8.483-.157.41-1.332.483-7.835.483-6.406 0-7.714-.079-8.05-.483-.22-.265-.862-.483-1.427-.483-.721 0-1.302-.287-1.951-.965-.509-.531-1.188-.965-1.509-.965-.356 0-.583-.236-.583-.605 0-.332-.217-.784-.483-1.004-.265-.221-.483-.655-.483-.966 0-.31-.217-.745-.482-.965-.335-.278-.483-1.017-.483-2.414 0-1.396.148-2.135.483-2.413.265-.221.482-.642.482-.937 0-.679 2.908-3.568 3.592-3.568.282 0 .686-.209.898-.464.211-.255.699-.508 1.085-.563.434-.062.739-.367.8-.8.055-.386.309-.874.563-1.086.659-.546.575-1.223-.26-2.105l-.724-.764-22.09-.005c-19.334-.005-22.112-.066-22.274-.489-.102-.265-.475-.482-.829-.482-1.087 0-2.917-2.105-2.917-3.356 0-.664-.186-1.152-.482-1.266-.328-.126-.483-.64-.483-1.604 0-.869.187-1.574.483-1.819.265-.221.482-.642.482-.936 0-1.019 3.281-3.891 4.445-3.891.633 0 1.119-.191 1.231-.483.162-.422 2.832-.483 21.334-.483h21.148l.711-.756c.63-.67.654-.803.217-1.166-.304-.252-.494-.943-.494-1.803 0-1.534-2.572-4.642-3.842-4.642-.327 0-.677-.217-.779-.482-.102-.266-.536-.483-.966-.483-.429 0-.863-.217-.965-.483-.162-.422-2.791-.482-20.962-.482s-20.799.06-20.961.482m137.087 26.066c-.132.345-.671.483-1.886.483-1.215 0-1.754.138-1.886.483-.115.298-.604.482-1.282.482-.604 0-1.278.218-1.498.483-.22.266-.655.483-.965.483-.311 0-.746.217-.966.482-.22.266-.645.483-.944.483-.3 0-.961.435-1.469.966-.509.531-1.163.965-1.453.965-.29 0-.867.362-1.283.804-.415.443-.99.805-1.278.805-.287 0-.877.428-1.311.952-.434.523-1.061.958-1.394.965-.733.017-6.631 5.98-6.65 6.725-.007.291-.442.885-.965 1.319-.524.434-.952 1.022-.952 1.307 0 .285-.434.934-.965 1.443-.531.509-.966 1.17-.966 1.469 0 .299-.217.724-.482.945-.266.22-.483.664-.483.985 0 .322-.145.675-.322.785-.177.109-.322.462-.322.784s-.217.765-.482.985c-.266.221-.483.872-.483 1.449 0 .576-.217 1.227-.483 1.448-.265.22-.483.894-.483 1.497 0 .679-.184 1.168-.482 1.283-.336.128-.483.652-.483 1.72 0 .972-.177 1.682-.483 1.936-.425.352-.482 6.04-.482 47.626 0 41.587-.058 47.274-.483 47.627-.266.22-.483.859-.483 1.419 0 .791-.345 1.359-1.539 2.535l-1.54 1.517h-6.851l-1.625-1.69c-.894-.929-1.628-1.943-1.632-2.252-.004-.31-.152-.563-.328-.563-.213 0-.322-13.173-.322-38.874 0-29.806-.09-38.964-.386-39.26-.54-.539-2.03-.482-2.511.097-.22.265-.894.482-1.497.482-.678 0-1.168.185-1.282.483-.129.336-.653.483-1.721.483-.972 0-1.682.177-1.936.482-.253.306-.963.483-1.93.483-.968 0-1.678.178-1.931.483-.221.265-.894.482-1.498.482-.678 0-1.168.185-1.282.483-.132.345-.671.483-1.886.483-1.215 0-1.754.138-1.887.483-.129.338-.657.482-1.765.482-1.011 0-1.723.174-1.98.483-.253.305-.963.483-1.931.483-.967 0-1.677.177-1.93.482-.221.266-.828.483-1.35.483-.522 0-1.166.217-1.432.483-.282.282-1.068.483-1.889.483-.773 0-1.495.144-1.605.321-.109.177-.896.322-1.749.322-.986 0-1.697.176-1.951.483-.257.309-.969.483-1.981.483-1.107 0-1.635.144-1.765.482-.121.316-.622.483-1.448.483-.825 0-1.327.167-1.448.483-.129.335-.652.482-1.72.482-.972 0-1.682.177-1.936.483-.253.305-.963.483-1.931.483-.967 0-1.677.177-1.931.482-.253.306-.963.483-1.935.483-1.068 0-1.592.147-1.721.483-.121.315-.622.483-1.448.483s-1.327.167-1.448.482c-.13.339-.658.483-1.765.483-1.012 0-1.724.174-1.98.483-.254.305-.964.482-1.931.482-.968 0-1.678.178-1.931.483-.22.266-.672.483-1.005.483-.422 0-.604.231-.604.77 0 .423-.217.853-.483.955-.265.102-.482.462-.482.8s-.218.794-.483 1.015c-.266.22-.483.639-.483.931 0 .682-4.835 5.505-5.519 5.505-.284 0-.696.217-.917.482-.22.266-.677.483-1.015.483-.338 0-.697.217-.799.483-.138.358-.707.482-2.203.482-1.401 0-2.141.148-2.419.483-.22.266-.729.483-1.131.483s-.814-.217-.916-.483c-.138-.359-.711-.483-2.248-.483-1.44 0-2.183-.145-2.463-.482-.22-.266-.654-.483-.965-.483-.311 0-.745-.217-.965-.483-.221-.265-.641-.482-.935-.482-.647 0-4.536-3.949-4.536-4.605 0-.256-.217-.646-.483-.866-.265-.22-.483-.655-.483-.965 0-.311-.217-.745-.482-.966-.266-.22-.483-.65-.483-.955 0-.668-.984-1.619-1.675-1.619-.274 0-.679-.217-.899-.483-.221-.265-.895-.483-1.498-.483-.678 0-1.168-.184-1.282-.482-.133-.347-.676-.483-1.931-.483s-1.798-.136-1.931-.483c-.129-.335-.652-.482-1.72-.482-.972 0-1.682-.178-1.936-.483-.253-.305-.963-.483-1.931-.483-.967 0-1.677-.177-1.931-.483-.22-.265-.894-.482-1.497-.482-.679 0-1.168-.185-1.282-.483-.133-.345-.672-.483-1.887-.483-1.215 0-1.754-.138-1.886-.482-.13-.339-.658-.483-1.765-.483-1.012 0-1.724-.174-1.98-.483-.254-.305-.964-.482-1.931-.482-.968 0-1.678-.178-1.931-.483-.22-.266-.89-.483-1.487-.483-.598 0-1.087-.145-1.087-.322 0-.177-.707-.321-1.57-.321-1.003 0-1.714-.175-1.97-.483-.253-.305-.963-.483-1.931-.483-.968 0-1.677-.177-1.931-.483-.256-.309-.969-.482-1.98-.482-1.107 0-1.635-.145-1.765-.483-.12-.311-.618-.483-1.404-.483-.786 0-1.284-.171-1.403-.482-.13-.339-.658-.483-1.765-.483-1.012 0-1.724-.174-1.98-.483-.221-.265-.872-.483-1.449-.483-.576 0-1.227-.217-1.448-.482-.253-.306-.963-.483-1.935-.483-1.068 0-1.592-.147-1.721-.483-.13-.338-.657-.482-1.765-.482-1.011 0-1.724-.174-1.98-.483-.22-.266-.872-.483-1.448-.483s-1.228-.217-1.448-.482c-.599-.722-2.042-.589-2.84.262l-.7.744v92.8l108.528-.081 108.527-.081.082-70.244c.071-62.045.137-70.265.563-70.428.886-.34.655-4.929-.293-5.828-.886-.84-2.685-.987-2.971-.242m2.458.322c0 .265.218.483.483.483.386 0 .483.479.483 2.379 0 1.818-.114 2.423-.483 2.564-.427.164-.483 8.296-.483 70.509v70.324H65.648v-46.107c0-45.796.004-46.111.647-46.661.797-.683 1.815-.713 2.456-.072.265.266.979.483 1.586.483.607 0 1.103.145 1.103.322 0 .177.801.321 1.78.321 1.285 0 1.832.135 1.965.483.133.347.675.483 1.921.483 1.328 0 1.736.113 1.736.483 0 .357.375.482 1.448.482 1.072 0 1.448.125 1.448.483 0 .369.407.483 1.735.483 1.246 0 1.788.136 1.921.482.121.316.622.483 1.448.483s1.327.167 1.448.483c.134.348.68.482 1.965.482 1.368 0 1.78.112 1.78.483 0 .37.408.483 1.736.483 1.246 0 1.788.136 1.921.483s.676.482 1.93.482c1.255 0 1.798.136 1.931.483.121.316.623.483 1.448.483.826 0 1.327.167 1.448.482.131.341.662.483 1.805.483.89 0 1.619.145 1.619.322 0 .177.801.322 1.78.322 1.285 0 1.831.134 1.965.482.132.345.671.483 1.886.483 1.216 0 1.754.138 1.887.483.122.318.626.483 1.482.483.939 0 1.298.133 1.298.482 0 .376.429.483 1.93.483 1.502 0 1.931.107 1.931.483 0 .369.408.482 1.736.482 1.245 0 1.787.137 1.92.483.134.347.676.483 1.931.483s1.798.135 1.931.482c.117.305.609.483 1.332.483.722 0 1.215.179 1.331.483.102.265.458.483.791.483.878 0 1.9.991 1.9 1.841 0 .437.195.733.483.733.322 0 .483.322.483.965 0 .644.161.966.482.966.322 0 .483.322.483.965 0 .644.161.966.483.966.265 0 .482.217.482.482 0 .266.148.483.328.483.18 0 .951.652 1.714 1.448.764.797 1.546 1.448 1.739 1.448.456 0 2.463 1.055 2.602 1.368.059.133 1.113.241 2.343.241 1.691 0 2.281.118 2.421.483.115.299.605.483 1.287.483.683 0 1.173-.184 1.288-.483.139-.365.728-.483 2.403-.483 1.264 0 2.218-.138 2.218-.322 0-.177.279-.321.621-.321.341 0 .838-.218 1.103-.483.266-.266.713-.483.994-.483.557 0 4.684-3.964 4.684-4.499 0-.18.217-.328.482-.328.322 0 .483-.322.483-.965 0-.644.161-.966.483-.966.302 0 .482-.305.482-.814 0-.448.218-.898.483-1 .266-.102.483-.532.483-.955 0-.61.17-.77.814-.77.449 0 .898-.218 1-.483.133-.345.671-.483 1.887-.483 1.215 0 1.754-.138 1.886-.483.131-.341.663-.482 1.814-.482 1.152 0 1.684-.142 1.815-.483.121-.316.622-.483 1.448-.483s1.327-.167 1.448-.482c.133-.347.675-.483 1.921-.483 1.328 0 1.735-.113 1.735-.483 0-.375.429-.482 1.931-.482s1.931-.108 1.931-.483c0-.371.412-.483 1.78-.483 1.285 0 1.831-.134 1.965-.483.121-.314.621-.482 1.438-.482.689 0 1.253-.145 1.253-.322 0-.177.714-.322 1.586-.322.981 0 1.77-.184 2.069-.483.289-.289 1.076-.482 1.963-.482 1.02 0 1.539-.151 1.667-.483.133-.347.676-.483 1.931-.483 1.254 0 1.797-.135 1.931-.482.121-.316.622-.483 1.448-.483.825 0 1.327-.167 1.448-.483.133-.346.675-.483 1.92-.483 1.329 0 1.736-.113 1.736-.482 0-.371.412-.483 1.78-.483 1.285 0 1.831-.134 1.965-.483.133-.344.671-.482 1.886-.482 1.216 0 1.754-.138 1.887-.483.122-.319.626-.483 1.482-.483.939 0 1.298-.133 1.298-.482 0-.371.412-.483 1.78-.483 1.285 0 1.831-.134 1.965-.483.133-.346.675-.483 1.921-.483.954 0 1.735-.144 1.735-.321 0-.177.497-.322 1.103-.322.607 0 1.321-.217 1.586-.483.266-.265.855-.483 1.311-.483h.827v38.949c0 34.323.057 38.97.483 39.133.265.102.483.475.483.829 0 .355.78 1.425 1.734 2.379l1.735 1.735h3.547c3.545 0 3.546 0 4.358-.965.447-.531.967-.965 1.155-.965.188 0 .343-.218.343-.483 0-.266.217-.483.482-.483.358 0 .483-.375.483-1.448s.125-1.448.483-1.448c.427 0 .482-5.49.482-47.476 0-41.904.057-47.498.483-47.661.345-.132.483-.671.483-1.886 0-1.216.138-1.754.483-1.887.315-.121.482-.622.482-1.448 0-.825.167-1.327.483-1.448.304-.117.483-.609.483-1.332 0-.722.178-1.215.482-1.331.266-.102.483-.532.483-.956 0-.423.142-.77.316-.77.173 0 .415-.397.537-.882.121-.484.414-1.074.649-1.31.236-.235.429-.707.429-1.049 0-.341.145-.62.322-.62.177 0 .321-.218.321-.483 0-.266.218-.483.483-.483.292 0 .483-.298.483-.756 0-.462.376-1.045.965-1.496.531-.407.966-.994.966-1.303 0-.704 5.915-6.742 6.605-6.742.278 0 .841-.362 1.251-.805.41-.442 1.025-.804 1.367-.804.342 0 .977-.429 1.411-.952.434-.524 1.094-.958 1.466-.966.371-.007 1.008-.448 1.415-.979.452-.589 1.035-.965 1.497-.965.457 0 .756-.191.756-.483 0-.322.322-.482.965-.482.644 0 .966-.161.966-.483 0-.349.358-.483 1.297-.483.856 0 1.36-.164 1.483-.483.132-.344.671-.482 1.886-.482 1.215 0 1.754-.138 1.886-.483.108-.282.591-.483 1.161-.483.653 0 .975.16.975.483"/>
    <path d="M142.997 82.864c-.114.296-.602.483-1.26.483-1.25 0-5.293 3.708-5.293 4.855 0 .349-.217.719-.483.821-.415.159-.482 1.676-.482 10.931 0 9.337.063 10.746.482 10.746.266 0 .483.217.483.483 0 .321.322.482.965.482.531 0 .966.129.966.287 0 .158.36.378.8.488 1.4.351 4.027 3.344 4.027 4.588 0 .59.145 1.073.322 1.073.177 0 .322.797.322 1.77 0 .974-.145 1.77-.322 1.77-.177 0-.325.471-.329 1.046-.009 1.345-2.82 4.425-4.038 4.425-.481 0-.782.186-.782.483 0 .321-.322.482-.966.482-.643 0-.965.161-.965.483 0 .416-1.122.483-8.171.483-6.967 0-8.199-.072-8.357-.483-.102-.266-.552-.483-1-.483-.51 0-.815-.181-.815-.482 0-.296-.3-.483-.774-.483-1.303 0-4.053-2.904-4.053-4.281 0-.7-.181-1.191-.482-1.306-.332-.127-.483-.645-.483-1.654 0-1.008.151-1.526.483-1.653.265-.102.482-.537.482-.966 0-.429.218-.863.483-.965.266-.102.483-.482.483-.844 0-.794 2.442-3.134 3.271-3.134.325 0 .59-.145.59-.322 0-.177.33-.322.733-.322 1.067 0 1.842-1.084 1.842-2.578v-1.283h-8.85c-5.685 0-8.849.115-8.849.322 0 .184-.969.321-2.263.321-1.714 0-2.308.117-2.448.483-.12.311-.617.483-1.404.483-.786 0-1.284.171-1.403.482-.102.266-.536.483-.966.483-.429 0-.863.217-.965.483-.102.265-.552.483-1 .483-.509 0-.814.18-.814.482 0 .358-.376.483-1.449.483-.796 0-1.448.145-1.448.322 0 .545-1.253 1.609-1.896 1.609-.335 0-.693.217-.794.482-.102.266-.48.483-.839.483-.36 0-1.233.579-1.941 1.287s-1.432 1.288-1.609 1.288c-.177 0-.322.217-.322.482 0 .266-.217.483-.483.483-.265 0-.482.14-.482.31 0 .171-1.449 1.776-3.218 3.567-1.823 1.845-3.219 3.524-3.219 3.873 0 .339-.217.617-.482.617-.266 0-.483.217-.483.483 0 .265-.217.482-.483.482-.321 0-.482.322-.482.966 0 .643-.161.965-.483.965-.322 0-.483.322-.483.965 0 .531-.145.966-.322.966-.177 0-.321.272-.321.604 0 .332-.218.785-.483 1.005-.266.22-.483.677-.483 1.015 0 .338-.217.697-.482.799-.316.121-.483.623-.483 1.448 0 .826-.167 1.327-.483 1.449-.315.121-.483.622-.483 1.448 0 .825-.167 1.327-.482 1.448-.369.141-.483.746-.483 2.564v2.379h1.297c.857 0 1.361.164 1.483.483.133.346.675.483 1.921.483 1.328 0 1.735.113 1.735.482 0 .358.376.483 1.448.483 1.073 0 1.448.125 1.448.483 0 .37.411.482 1.77.482.974 0 1.77.145 1.77.322 0 .177.714.322 1.586.322.981 0 1.77.184 2.069.483.284.284 1.071.482 1.914.482.88 0 1.586.186 1.833.483.256.309.968.483 1.98.483 1.107 0 1.635.144 1.765.482.121.316.622.483 1.448.483s1.327.167 1.448.483c.132.345.671.483 1.886.483 1.216 0 1.754.137 1.887.482.133.349.679.483 1.965.483 1.368 0 1.78.112 1.78.483s.412.482 1.78.482c1.285 0 1.831.135 1.965.483.12.312.618.483 1.404.483.786 0 1.284.171 1.403.483.134.348.68.482 1.966.482 1.367 0 1.78.112 1.78.483 0 .37.409.483 1.75.483.963 0 1.841.144 1.95.321.11.177.832.322 1.605.322.821 0 1.607.201 1.889.483.266.265 1.005.483 1.642.483.734 0 1.228.177 1.345.482.13.339.658.483 1.77.483 1.111 0 1.64.144 1.77.483.133.347.676.482 1.93.482 1.255 0 1.798.136 1.931.483s.676.483 1.931.483 1.798.136 1.931.483c.121.314.621.482 1.438.482.899 0 1.253.137 1.253.483 0 .268.286.483.643.483.358 0 .644-.215.644-.483 0-.266.217-.483.483-.483.265 0 .482-.217.482-.482 0-.266.218-.483.483-.483s.483-.217.483-.483c0-.294.3-.483.77-.483.423 0 .853-.217.955-.482.102-.266.536-.483.965-.483.43 0 .864-.217.966-.483.117-.305.611-.482 1.345-.482.637 0 1.376-.218 1.642-.483.682-.682 5.341-.682 5.907 0 .22.265.894.483 1.498.483.678 0 1.167.184 1.282.482.117.304.609.483 1.332.483.939 0 1.398.262 2.535 1.448.763.797 1.679 1.448 2.036 1.448s.649.174.649.386c0 .301.086.301.386 0 .213-.212 1.154-.386 2.092-.386 1.302 0 1.706-.114 1.706-.482 0-.37.407-.483 1.735-.483 1.246 0 1.788-.136 1.921-.483.121-.315.622-.483 1.448-.483s1.327-.167 1.448-.482c.133-.347.676-.483 1.931-.483s1.798-.136 1.931-.483c.127-.332.646-.482 1.666-.482.888 0 1.675-.194 1.964-.483.299-.299 1.088-.483 2.069-.483.872 0 1.586-.145 1.586-.322 0-.177.564-.321 1.253-.321.816 0 1.317-.168 1.438-.483.133-.349.679-.483 1.965-.483 1.368 0 1.78-.112 1.78-.482 0-.376.429-.483 1.931-.483 1.501 0 1.93-.107 1.93-.483 0-.346.354-.483 1.253-.483.817 0 1.317-.168 1.438-.482.134-.349.68-.483 1.965-.483 1.368 0 1.78-.112 1.78-.483s.413-.482 1.781-.482c1.285 0 1.831-.135 1.965-.483.132-.345.671-.483 1.886-.483 1.215 0 1.754-.138 1.886-.483.121-.315.623-.482 1.448-.482.826 0 1.327-.167 1.449-.483.129-.338.657-.483 1.764-.483 1.012 0 1.724-.173 1.981-.482.256-.309.967-.483 1.97-.483.863 0 1.57-.145 1.57-.322 0-.177.801-.322 1.78-.322 1.285 0 1.831-.134 1.965-.482.119-.312.617-.483 1.403-.483.787 0 1.285-.171 1.404-.483.134-.348.68-.482 1.965-.482 1.368 0 1.78-.112 1.78-.483 0-.365.394-.483 1.609-.483 2.489 0 2.897-.591 2.897-4.193 0-2.287.102-2.946.482-3.092.347-.133.483-.676.483-1.931s.136-1.797.483-1.931c.311-.119.482-.617.482-1.403s.172-1.284.483-1.404c.266-.102.483-.552.483-1 0-.509.18-.814.482-.814.358 0 .483-.376.483-1.448 0-1.073.125-1.448.483-1.448.322 0 .483-.322.483-.966 0-.643.16-.965.482-.965.302 0 .483-.305.483-.815 0-.448.217-.898.483-1 .265-.102.482-.479.482-.838s.362-.988.805-1.398c.442-.41.804-1.047.804-1.415 0-.368.218-.752.483-.854.266-.102.483-.481.483-.843 0-.381.814-1.453 1.931-2.542 1.062-1.036 1.93-2.095 1.93-2.354 0-.258 1.014-1.473 2.253-2.7s2.253-2.39 2.253-2.585c0-.254-4.525-.355-15.907-.355-13.709 0-15.972-.067-16.389-.483-.265-.265-.727-.483-1.026-.483-.705 0-3.042-2.336-3.042-3.042 0-.299-.217-.761-.483-1.026-.283-.284-.482-1.07-.482-1.908v-1.425h-5.471v5.467c0 5.936.225 6.761 1.841 6.761.404 0 .733.145.733.322 0 .177.266.322.59.322.829 0 3.272 2.34 3.272 3.134 0 .362.217.742.483.844.387.148.482.86.482 3.584 0 2.725-.095 3.436-.482 3.585-.266.102-.483.454-.483.783 0 .883-2.125 2.873-3.068 2.873-.491 0-.794.184-.794.483 0 .301-.305.482-.814.482-.448 0-.898.217-1 .483-.158.411-1.39.483-8.357.483-7.049 0-8.171-.067-8.171-.483 0-.358-.376-.483-1.448-.483-1.073 0-1.449-.125-1.449-.482 0-.266-.217-.483-.482-.483-.266 0-.483-.113-.483-.251 0-.139-.434-.416-.965-.616-.622-.235-.966-.59-.966-.997 0-.347-.217-.812-.483-1.032-.265-.221-.482-.673-.482-1.005 0-.333-.145-.604-.322-.604-.189 0-.322-1.127-.322-2.736 0-1.609.133-2.735.322-2.735.177 0 .322-.266.322-.591 0-.782 3.009-3.85 4.027-4.105.44-.11.8-.33.8-.488 0-.158.434-.287.965-.287.858 0 .966-.107.966-.965 0-.644.161-.965.482-.965.685 0 .598-.724-.164-1.377-.599-.513-2.288-.554-22.503-.554-18.999 0-21.919-.063-22.339-.483-.265-.265-.727-.483-1.026-.483-1.044 0-3.042-2.383-3.042-3.628 0-.707-.181-1.199-.483-1.315-.356-.137-.483-.699-.483-2.136 0-1.438.127-2 .483-2.137.265-.101.483-.478.483-.836 0-.639 2.008-2.82 2.597-2.82.164 0 .299-.217.299-.482 0-.35.358-.483 1.297-.483.856 0 1.36-.164 1.483-.483.162-.422 2.856-.483 21.55-.483 18.289 0 21.366-.066 21.366-.459 0-.252.253-.525.563-.606.536-.14.536-.149 0-.184-.456-.031-.563-.342-.563-1.631 0-1.758-2.477-4.843-3.887-4.843-.352 0-.722-.217-.824-.483-.102-.265-.516-.482-.921-.482s-.819-.217-.921-.483c-.162-.422-2.755-.483-20.64-.483s-20.478.061-20.639.483m137.087 26.066c-.132.345-.671.483-1.886.483-1.215 0-1.754.138-1.886.482-.123.319-.627.483-1.483.483-.939 0-1.297.134-1.297.483 0 .322-.322.483-.966.483-.643 0-.965.16-.965.482 0 .292-.299.483-.756.483-.462 0-1.045.376-1.497.965-.407.531-1.044.972-1.415.979-.372.008-1.032.442-1.466.966-.434.523-1.069.952-1.411.952-.342 0-.957.362-1.367.804-.41.443-.973.805-1.251.805-.69 0-6.605 6.038-6.605 6.742 0 .309-.435.896-.966 1.303-.589.451-.965 1.034-.965 1.496 0 .458-.191.756-.483.756-.265 0-.483.217-.483.483 0 .265-.144.483-.321.483-.177 0-.322.279-.322.62 0 .342-.193.814-.429 1.049-.235.236-.528.826-.649 1.31-.122.485-.364.882-.537.882-.174 0-.316.347-.316.77 0 .424-.217.854-.483.956-.304.116-.482.609-.482 1.331 0 .723-.179 1.215-.483 1.332-.316.121-.483.623-.483 1.448 0 .826-.167 1.327-.482 1.448-.345.133-.483.671-.483 1.887 0 1.215-.138 1.754-.483 1.886-.426.163-.483 5.757-.483 47.661 0 41.986-.055 47.476-.482 47.476-.358 0-.483.375-.483 1.448s-.125 1.448-.483 1.448c-.265 0-.482.217-.482.483 0 .265-.155.483-.343.483-.188 0-.708.434-1.155.965-.812.965-.813.965-4.358.965h-3.547l-1.735-1.735c-.954-.954-1.734-2.024-1.734-2.379 0-.354-.218-.727-.483-.829-.426-.163-.483-4.81-.483-39.133v-38.949h-.827c-.456 0-1.045.218-1.311.483-.265.266-.979.483-1.586.483-.606 0-1.103.145-1.103.322 0 .177-.781.321-1.735.321-1.246 0-1.788.137-1.921.483-.134.349-.68.483-1.965.483-1.368 0-1.78.112-1.78.483 0 .349-.359.482-1.298.482-.856 0-1.36.164-1.482.483-.133.345-.671.483-1.887.483-1.215 0-1.753.138-1.886.482-.134.349-.68.483-1.965.483-1.368 0-1.78.112-1.78.483 0 .369-.407.482-1.736.482-1.245 0-1.787.137-1.92.483-.121.316-.623.483-1.448.483-.826 0-1.327.167-1.448.483-.134.347-.677.482-1.931.482-1.255 0-1.798.136-1.931.483-.128.332-.647.483-1.667.483-.887 0-1.674.193-1.963.482-.299.299-1.088.483-2.069.483-.872 0-1.586.145-1.586.322 0 .177-.564.322-1.253.322-.817 0-1.317.168-1.438.482-.134.349-.68.483-1.965.483-1.368 0-1.78.112-1.78.483 0 .375-.429.483-1.931.483s-1.931.107-1.931.482c0 .37-.407.483-1.735.483-1.246 0-1.788.136-1.921.483-.121.315-.622.482-1.448.482s-1.327.167-1.448.483c-.131.341-.663.483-1.815.483-1.151 0-1.683.141-1.814.482-.132.345-.671.483-1.886.483-1.216 0-1.754.138-1.887.483-.102.265-.551.483-1 .483-.644 0-.814.16-.814.77 0 .423-.217.853-.483.955-.265.102-.483.552-.483 1 0 .509-.18.814-.482.814-.322 0-.483.322-.483.966 0 .643-.161.965-.483.965-.265 0-.482.148-.482.328 0 .535-4.127 4.499-4.684 4.499-.281 0-.728.217-.994.483-.265.265-.762.483-1.103.483-.342 0-.621.144-.621.321 0 .184-.954.322-2.218.322-1.675 0-2.264.118-2.403.483-.115.299-.605.483-1.288.483-.682 0-1.172-.184-1.287-.483-.14-.365-.73-.483-2.421-.483-1.23 0-2.284-.108-2.343-.241-.139-.313-2.146-1.368-2.602-1.368-.193 0-.975-.651-1.739-1.448-.763-.796-1.534-1.448-1.714-1.448-.18 0-.328-.217-.328-.483 0-.265-.217-.482-.482-.482-.322 0-.483-.322-.483-.966 0-.643-.161-.965-.483-.965-.321 0-.482-.322-.482-.966 0-.643-.161-.965-.483-.965-.288 0-.483-.296-.483-.733 0-.85-1.022-1.841-1.9-1.841-.333 0-.689-.218-.791-.483-.116-.304-.609-.483-1.331-.483-.723 0-1.215-.178-1.332-.483-.133-.347-.676-.482-1.931-.482s-1.797-.136-1.931-.483c-.133-.346-.675-.483-1.92-.483-1.328 0-1.736-.113-1.736-.482 0-.376-.429-.483-1.931-.483-1.501 0-1.93-.107-1.93-.483 0-.349-.359-.482-1.298-.482-.856 0-1.36-.165-1.482-.483-.133-.345-.671-.483-1.887-.483-1.215 0-1.754-.138-1.886-.483-.134-.348-.68-.482-1.965-.482-.979 0-1.78-.145-1.78-.322 0-.177-.729-.322-1.619-.322-1.143 0-1.674-.142-1.805-.483-.121-.315-.622-.482-1.448-.482-.825 0-1.327-.167-1.448-.483-.133-.347-.676-.483-1.931-.483-1.254 0-1.797-.135-1.93-.482s-.675-.483-1.921-.483c-1.328 0-1.736-.113-1.736-.483 0-.371-.412-.483-1.78-.483-1.285 0-1.831-.134-1.965-.482-.121-.316-.622-.483-1.448-.483s-1.327-.167-1.448-.483c-.133-.346-.675-.482-1.921-.482-1.328 0-1.735-.114-1.735-.483 0-.358-.376-.483-1.448-.483-1.073 0-1.448-.125-1.448-.482 0-.37-.408-.483-1.736-.483-1.246 0-1.788-.136-1.921-.483-.133-.348-.68-.483-1.965-.483-.979 0-1.78-.144-1.78-.321 0-.177-.496-.322-1.103-.322s-1.321-.217-1.586-.483c-.641-.641-1.659-.611-2.456.072-.643.55-.647.865-.647 46.661v46.107H282.22v-70.324c0-62.213.056-70.345.483-70.509.369-.141.483-.746.483-2.564 0-1.9-.097-2.379-.483-2.379-.265 0-.483-.218-.483-.483 0-.323-.322-.483-.975-.483-.57 0-1.053.201-1.161.483" opacity=".3"/>
    <path fill="#041c34" d="M315.768.233c-.634.079-1.046.311-1.046.592 0 .299-.34.462-.965.462-.644 0-.965.161-.965.483 0 .322-.322.483-.966.483-.643 0-.965.161-.965.482 0 .266-.217.483-.483.483-.265 0-.483.217-.483.483 0 .265-.144.482-.321.482-.177 0-.322.435-.322.966 0 .643-.161.965-.483.965-.265 0-.483.217-.483.483 0 .265-.217.483-.482.483-.322 0-.483.321-.483.965 0 .644-.161.965-.483.965-.348 0-.482.358-.482 1.288 0 .929-.134 1.287-.483 1.287-.404 0-.483.679-.483 4.183 0 3.504.079 4.184.483 4.184.357 0 .483.375.483 1.448s.125 1.448.482 1.448c.322 0 .483.322.483.965 0 .644.161.966.483.966.265 0 .482.217.482.482 0 .266.218.483.483.483.283 0 .487.3.493.724.012.83.691 1.851 1.232 1.851.202 0 .367.217.367.482 0 .322.322.483.965.483.644 0 .966.161.966.483 0 .265.217.482.482.482.266 0 .483.218.483.483 0 .266.217.483.483.483.416 0 .482 1.09.482 7.884 0 6.794-.066 7.884-.482 7.884-.266 0-.483.217-.483.483 0 .322-.322.483-.965.483-.644 0-.966.16-.966.482 0 .322-.322.483-.965.483-.644 0-.966.161-.966.483 0 .265-.144.482-.321.482-.177 0-.322.218-.322.483 0 .322-.322.483-.966.483-.643 0-.965.161-.965.482 0 .266-.217.483-.483.483-.265 0-.482.217-.482.483 0 .322-.322.483-.966.483-.643 0-.965.16-.965.482 0 .266-.217.483-.483.483-.265 0-.483.217-.483.483 0 .265-.156.482-.347.482-.452 0-3.192 2.741-3.192 3.193 0 .191-.218.347-.483.347-.266 0-.483.217-.483.483 0 .265-.217.483-.483.483-.265 0-.482.217-.482.482 0 .266-.217.483-.483.483-.265 0-.483.217-.483.483 0 .265-.217.482-.482.482-.322 0-.483.322-.483.966 0 .643-.161.965-.483.965-.265 0-.482.217-.482.483 0 .265-.144.483-.319.483-.629 0-1.612 1.123-1.612 1.841 0 .437-.195.733-.483.733-.265 0-.483.217-.483.483 0 .265-.217.482-.482.482-.322 0-.483.322-.483.966 0 .531-.145.965-.322.965-.177 0-.322.435-.322.966 0 .643-.161.965-.482.965-.266 0-.483.217-.483.483 0 .265-.217.482-.483.482-.3 0-.483.304-.483.805 0 .501-.182.804-.482.804-.358 0-.483.376-.483 1.449 0 1.072-.125 1.448-.483 1.448-.321 0-.482.322-.482.965 0 .644-.161.966-.483.966-.358 0-.483.375-.483 1.448 0 1.072-.125 1.448-.482 1.448-.371 0-.483.411-.483 1.77 0 1.358-.112 1.77-.483 1.77-.375 0-.483.429-.483 1.93 0 1.502-.107 1.931-.482 1.931-.358 0-.483.376-.483 1.448v1.448h-32.502c-21.453 0-32.502.11-32.502.322 0 .177-.434.322-.965.322-.644 0-.966.161-.966.483 0 .322-.322.482-.965.482-.644 0-.966.161-.966.483 0 .266-.217.483-.482.483-.322 0-.483.322-.483.965 0 .67-.157.966-.514.966-.742 0-.114 5.46.708 6.141.247.205.45.617.45.915 0 .688 1.951 2.598 2.654 2.598.292 0 .652.216.8.479.231.414 2.49.492 16.312.564 19.082.099 18.077-.156 14.25 3.609-1.364 1.342-2.48 2.672-2.48 2.956 0 .283-.869 1.36-1.931 2.393-1.117 1.086-1.93 2.155-1.93 2.535 0 .362-.145.658-.322.658-.177 0-.322.284-.322.632 0 .348-.434 1.077-.965 1.62-.531.543-.966 1.182-.966 1.42s-.217.612-.483.833c-.265.22-.482.655-.482.965 0 .311-.217.745-.483.966-.265.22-.483.654-.483.965 0 .311-.217.745-.482.965-.266.221-.483.872-.483 1.449 0 .576-.217 1.227-.483 1.448-.265.22-.482.654-.482.965 0 .311-.218.745-.483.965-.266.221-.483.875-.483 1.454 0 .638-.19 1.125-.483 1.237-.347.133-.482.676-.482 1.931s-.136 1.798-.483 1.931c-.38.146-.483.804-.483 3.088 0 3.599-.371 4.197-2.606 4.197-.939 0-1.648.18-1.899.483-.256.309-.969.482-1.98.482-1.108 0-1.635.145-1.765.483-.12.312-.618.483-1.404.483-.786 0-1.284.171-1.403.482-.13.339-.658.483-1.765.483-1.012 0-1.724.174-1.981.483-.253.305-.963.483-1.93.483-.968 0-1.678.177-1.931.482-.256.309-.968.483-1.97.483-.864 0-1.57.145-1.57.322 0 .177-.497.322-1.103.322-.607 0-1.321.217-1.586.482-.285.285-1.071.483-1.915.483-.88 0-1.586.186-1.832.483-.257.309-.969.482-1.98.482-1.108 0-1.635.145-1.765.483-.133.345-.671.483-1.887.483-1.215 0-1.754.138-1.886.483-.114.298-.604.482-1.282.482-.603 0-1.277.217-1.498.483-.253.305-.963.483-1.931.483-.967 0-1.677.177-1.93.482-.257.309-.969.483-1.981.483-1.107 0-1.635.144-1.765.483-.119.311-.617.482-1.403.482s-1.284.172-1.404.483c-.13.338-.657.483-1.765.483-1.011 0-1.723.173-1.98.483-.255.306-.966.482-1.951.482-.853 0-1.64.145-1.75.322-.109.177-.831.322-1.605.322-.821 0-1.607.201-1.889.483-.265.265-.909.482-1.431.482s-1.13.217-1.35.483c-.253.305-.963.483-1.931.483-.967 0-1.677.177-1.931.482-.254.307-.965.483-1.954.483-1.138 0-1.637.149-1.865.557-.295.527-.343.527-.926 0-.338-.307-.821-.559-1.072-.562-.252-.003-1.085-.655-1.851-1.448-1.117-1.157-1.612-1.443-2.494-1.443-.605 0-1.101-.145-1.101-.322 0-.177-.489-.322-1.087-.322-.597 0-1.267-.217-1.487-.482-.576-.695-5.642-.695-5.909 0-.115.3-.606.482-1.302.482-.615 0-1.207.145-1.317.322-.109.177-.462.322-.784.322s-.765.217-.986.483c-.22.265-.642.482-.937.482-.296 0-1.177.652-1.959 1.448-1.492 1.521-2.231 1.767-2.896.966-.22-.266-.872-.483-1.448-.483s-1.228-.217-1.448-.483c-.254-.305-.964-.482-1.936-.482-1.068 0-1.592-.147-1.721-.483-.129-.338-.657-.483-1.764-.483-1.012 0-1.724-.173-1.981-.482-.254-.307-.965-.483-1.951-.483-.853 0-1.64-.145-1.75-.322-.109-.177-.701-.322-1.316-.322-.696 0-1.187-.182-1.302-.482-.129-.336-.653-.483-1.721-.483-.972 0-1.682-.177-1.936-.483-.253-.305-.963-.483-1.93-.483-.968 0-1.678-.177-1.931-.482-.257-.309-.969-.483-1.981-.483-1.107 0-1.635-.144-1.765-.483-.121-.315-.622-.482-1.448-.482-.825 0-1.327-.167-1.448-.483-.129-.336-.652-.483-1.72-.483-.972 0-1.682-.177-1.936-.482-.253-.306-.963-.483-1.931-.483-.967 0-1.677-.178-1.931-.483-.253-.306-.963-.483-1.935-.483-1.068 0-1.592-.147-1.721-.482-.121-.316-.622-.483-1.448-.483s-1.327-.167-1.448-.483c-.13-.339-.66-.482-1.785-.482-.88 0-1.69-.145-1.799-.322-.11-.177-.897-.322-1.75-.322-.986 0-1.696-.176-1.951-.483-.257-.309-.969-.482-1.98-.482-1.108 0-1.635-.145-1.765-.483-.129-.336-.653-.483-1.721-.483-.972 0-1.682-.177-1.936-.483-.22-.265-.871-.482-1.448-.482-.576 0-1.227-.217-1.448-.483-.256-.309-.968-.483-1.98-.483-1.107 0-1.635-.144-1.765-.482-.121-.315-.621-.483-1.438-.483h-1.253v-2.696c0-2.004.124-2.799.483-3.096.265-.221.483-.875.483-1.454 0-.638.189-1.125.482-1.237.301-.116.483-.607.483-1.303 0-.614.145-1.207.322-1.316.177-.11.322-.462.322-.784s.217-.766.482-.986c.266-.22.483-.655.483-.966 0-.31.217-.745.483-.965.265-.22.482-.655.482-.965 0-.311.218-.745.483-.966.266-.22.483-.645.483-.944 0-.3.434-.961.965-1.469.531-.509.966-1.15.966-1.425 0-.669 10.308-10.965 10.978-10.965.29 0 .708-.217.928-.482.221-.266.646-.483.945-.483.299 0 .96-.434 1.469-.965.649-.678 1.231-.966 1.951-.966.565 0 1.207-.217 1.428-.483.22-.265.677-.482 1.015-.482.338 0 .697-.217.799-.483.102-.265.537-.483.966-.483.429 0 .863-.217.965-.482.12-.312.618-.483 1.404-.483.786 0 1.284-.171 1.403-.483.138-.359.711-.482 2.248-.482 1.45 0 2.182-.145 2.467-.488.347-.418 1.691-.476 9.452-.402l9.047.085.099 1.545c.106 1.651-.784 3.104-1.909 3.116-.289.003-.704.222-.925.488-.22.265-.643.483-.939.483-.678 0-2.922 2.266-2.922 2.95 0 .281-.218.691-.483.911-.266.22-.483.673-.483 1.005 0 .332-.145.604-.322.604-.419 0-.419 2.476 0 2.735.177.11.322.666.322 1.237 0 1.139 2.899 4.395 3.913 4.395.282 0 .694.217.914.483.221.265.677.482 1.015.482.338 0 .698.218.8.483.277.722 15.285.722 15.884 0 .221-.265.655-.483.966-.483.31 0 .745-.217.965-.482.22-.266.642-.483.937-.483.976 0 3.568-2.959 3.568-4.075 0-.547.218-1.175.483-1.396.266-.22.483-.872.483-1.448s-.217-1.227-.483-1.448c-.265-.22-.483-.859-.483-1.419 0-1.118-2.6-4.051-3.592-4.051-.282 0-.693-.218-.913-.483-.22-.266-.647-.483-.949-.483-.301 0-.863-.335-1.247-.745-.919-.978-1.123-22.282-.217-22.63.265-.102.482-.451.482-.777 0-1.111 4.071-4.81 5.293-4.81.658 0 1.146-.187 1.26-.483.28-.731 41.642-.731 41.923 0 .102.266.536.483.965.483.43 0 .864.217.966.483.102.265.452.482.779.482 1.27 0 3.842 3.108 3.842 4.642 0 .86.19 1.551.494 1.803.437.363.413.496-.217 1.166l-.711.756h-21.148c-18.502 0-21.172.061-21.334.483-.113.295-.6.483-1.252.483-1.166 0-4.424 2.881-4.424 3.912 0 .283-.217.694-.482.915-.657.545-.657 3.171 0 3.423.296.114.482.602.482 1.266 0 1.251 1.83 3.356 2.917 3.356.354 0 .727.217.829.482.162.423 2.94.484 22.274.489l22.09.005.724.764c.835.882.919 1.559.26 2.105-.254.212-.508.7-.563 1.086-.061.433-.366.738-.8.8-.386.055-.874.308-1.085.563-.212.255-.626.464-.921.464-.679 0-3.569 2.908-3.569 3.591 0 .282-.217.693-.482.914-.672.557-.672 4.269 0 4.827.265.22.482.655.482.965 0 .311.218.745.483.966.266.22.483.672.483 1.004 0 .369.227.605.583.605.321 0 1 .434 1.509.965.649.678 1.23.965 1.951.965.565 0 1.207.218 1.427.483.599.722 15.608.722 15.885 0 .102-.265.462-.483.8-.483s.794-.217 1.015-.482c.22-.266.643-.483.939-.483.678 0 2.922-2.266 2.922-2.951 0-.28.217-.69.483-.911.358-.296.483-1.088.483-3.057 0-1.968-.125-2.76-.483-3.057-.266-.22-.483-.643-.483-.939 0-.678-2.266-2.922-2.951-2.922-.28 0-.69-.218-.91-.483-.221-.266-.637-.485-.925-.488-1.708-.019-2.014-1.191-1.822-6.975.539-16.235.542-18.764.024-18.764-.386 0-.495-.391-.495-1.77 0-1.359-.113-1.77-.483-1.77-.322 0-.483-.322-.483-.965 0-.644-.161-.966-.483-.966-.321 0-.482-.321-.482-.965 0-.644-.161-.965-.483-.965-.322 0-.483-.322-.483-.966 0-.643-.161-.965-.482-.965-.266 0-.483-.218-.483-.483s-.217-.483-.483-.483c-.265 0-.482-.217-.482-.482 0-.266-.218-.483-.483-.483-.266 0-.483-.155-.483-.345 0-.445-.819-1.264-1.264-1.264-.19 0-.345-.217-.345-.483 0-.265-.217-.483-.483-.483-.265 0-.482-.217-.482-.482 0-.322-.322-.483-.966-.483-.643 0-.965-.161-.965-.483 0-.265-.217-.482-.483-.482-.265 0-.483-.218-.483-.483 0-.358-.375-.483-1.448-.483-1.072 0-1.448-.125-1.448-.482 0-.349-.357-.483-1.287-.483-.93 0-1.287-.134-1.287-.483 0-.425-3.022-.483-25.262-.483-22.24 0-25.261.058-25.261.483 0 .349-.358.483-1.287.483-.93 0-1.288.134-1.288.483 0 .357-.375.482-1.448.482-1.072 0-1.448.125-1.448.483 0 .322-.322.483-.965.483-.644 0-.966.161-.966.482 0 .266-.217.483-.482.483-.266 0-.483.217-.483.483 0 .265-.217.482-.483.482-.265 0-.482.218-.482.483 0 .266-.218.483-.483.483-.266 0-.483.145-.483.322 0 .177-.362.321-.804.321-.68 0-.805.151-.805.966 0 .643-.161.965-.482.965-.266 0-.483.218-.483.483s-.217.483-.483.483c-.265 0-.483.217-.483.482 0 .266-.217.483-.482.483-.322 0-.483.322-.483.966 0 .643-.161.965-.483.965-.322 0-.482.322-.482.965 0 .644-.161.966-.483.966-.371 0-.483.411-.483 1.77 0 1.358-.112 1.77-.483 1.77-.398 0-.482.59-.482 3.378v3.379h-7.884c-5.042 0-7.885.116-7.885.322 0 .196-1.448.322-3.7.322-3.075 0-3.701.082-3.701.483 0 .375-.429.482-1.931.482s-1.931.108-1.931.483c0 .349-.357.483-1.287.483-.929 0-1.287.134-1.287.483 0 .357-.375.482-1.448.482s-1.448.125-1.448.483c0 .322-.322.483-.966.483-.643 0-.965.161-.965.482 0 .322-.322.483-.965.483-.644 0-.966.161-.966.483 0 .322-.322.482-.965.482-.644 0-.966.161-.966.483 0 .3-.304.483-.804.483-.501 0-.805.182-.805.483 0 .307-.308.482-.848.482-.491 0-1.161.339-1.593.805-.42.452-1.105.804-1.566.804-.514 0-.82.18-.82.483 0 .265-.217.483-.482.483-.266 0-.483.217-.483.482 0 .322-.322.483-.966.483-.643 0-.965.161-.965.483 0 .265-.145.482-.322.482-.177 0-.322.218-.322.483 0 .266-.217.483-.482.483-.266 0-.483.217-.483.483 0 .265-.217.482-.483.482-.265 0-.482.218-.482.483s-.218.483-.483.483c-.266 0-.483.217-.483.482 0 .266-.217.483-.482.483-.266 0-.483.217-.483.483 0 .265-.165.483-.366.483-.2 0-.7.362-1.11.804-.411.442-.898.805-1.083.805-.186 0-.337.217-.337.482 0 .266-.218.483-.483.483-.266 0-.483.152-.483.337 0 .186-.362.673-.804 1.083-.466.432-.805 1.102-.805 1.594 0 .539-.176.848-.482.848-.266 0-.483.217-.483.482 0 .266-.217.483-.483.483-.265 0-.483.217-.483.483 0 .265-.217.482-.482.482-.301 0-.483.304-.483.805 0 .5-.182.804-.483.804-.322 0-.482.322-.482.966 0 .643-.161.965-.483.965-.266 0-.483.217-.483.483 0 .265-.217.483-.483.483-.321 0-.482.321-.482.965 0 .644-.161.965-.483.965-.322 0-.483.322-.483.966 0 .643-.161.965-.482.965-.322 0-.483.322-.483.966 0 .531-.145.965-.322.965-.177 0-.322.579-.322 1.287 0 .93-.134 1.287-.482 1.287-.358 0-.483.376-.483 1.449 0 1.072-.125 1.448-.483 1.448-.375 0-.482.429-.482 1.93 0 1.502-.108 1.931-.483 1.931-.383 0-.483.465-.483 2.253s-.099 2.253-.483 2.253c-.427 0-.482 6.543-.482 56.958v56.959h-1.448c-1.073 0-1.448.126-1.448.483 0 .383-.465.483-2.253.483-1.287 0-2.253.138-2.253.322 0 .178-.858.321-1.931.321-1.501 0-1.93.108-1.93.483 0 .349-.359.483-1.298.483-.856 0-1.36.164-1.482.483-.102.265-.532.482-.955.482-.47 0-.771.188-.771.483 0 .322-.321.483-.965.483-.644 0-.965.161-.965.482 0 .322-.322.483-.966.483-.643 0-.965.161-.965.483 0 .322-.322.483-.966.483-.643 0-.965.16-.965.482 0 .302-.305.483-.815.483-.448 0-.898.217-.999.483-.102.265-.532.482-.956.482-.47 0-.77.188-.77.483 0 .266-.217.483-.483.483-.265 0-.482.217-.482.482 0 .266-.217.483-.483.483-.265 0-.483.145-.483.322 0 .177-.434.322-.965.322-.644 0-.965.161-.965.482 0 .266-.218.483-.483.483-.266 0-.483.217-.483.483 0 .265-.217.483-.483.483-.265 0-.482.217-.482.482 0 .266-.217.483-.483.483-.265 0-.483.217-.483.483 0 .265-.144.482-.321.482-.177 0-.322.218-.322.483 0 .322-.322.483-.966.483-.643 0-.965.161-.965.482 0 .266-.217.483-.483.483-.265 0-.482.217-.482.483 0 .265-.218.483-.483.483-.322 0-.483.321-.483.965 0 .644-.161.965-.483.965-.265 0-.482.145-.482.322 0 .177-.218.322-.483.322-.266 0-.483.217-.483.483 0 .265-.217.482-.482.482-.266 0-.483.218-.483.483 0 .266-.217.483-.483.483-.322 0-.483.322-.483.965 0 .644-.16.966-.482.966-.266 0-.483.217-.483.482 0 .266-.145.483-.322.483-.177 0-.322.217-.322.483 0 .265-.217.482-.482.482-.322 0-.483.322-.483.966 0 .643-.161.965-.483.965-.3 0-.482.304-.482.805 0 .5-.183.804-.483.804-.322 0-.483.322-.483.966 0 .643-.161.965-.482.965-.322 0-.483.322-.483.965 0 .644-.161.966-.483.966-.322 0-.483.322-.483.965 0 .644-.16.966-.482.966-.322 0-.483.321-.483.965 0 .644-.161.966-.483.966-.348 0-.482.357-.482 1.287 0 .929-.134 1.287-.483 1.287-.376 0-.483.429-.483 1.931 0 1.441-.114 1.931-.451 1.931-.62 0-.933 5.396-.788 13.56l.113 6.319.921.921.922.921 30.027.089 30.026.088.83-.769c.456-.423.83-.933.83-1.134 0-.201.217-.366.483-.366.265 0 .482-.217.482-.482 0-.266.225-.483.5-.483.646 0 .316-5.339-.38-6.14-.243-.279-.442-.718-.442-.976s-.763-1.223-1.697-2.145l-1.697-1.676-23.001-.082-23.001-.083-.098-1.532c-.074-1.153.025-1.579.402-1.724.365-.14.5-.651.5-1.893 0-1.215.138-1.754.483-1.886.265-.102.483-.462.483-.8s.217-.794.482-1.015c.266-.22.483-.872.483-1.448s.217-1.228.483-1.448c.265-.22.483-.645.483-.944 0-.3.434-.961.965-1.469.531-.509.965-1.161.965-1.449 0-.287.435-.939.966-1.448.531-.508.965-1.153.965-1.432 0-.656 9.343-9.992 10-9.992.275 0 .915-.434 1.424-.965.509-.531 1.17-.965 1.469-.965.299 0 .724-.218.945-.483.22-.266.654-.483.965-.483.311 0 .745-.217.965-.483.221-.265.655-.482.966-.482.31 0 .745-.217.965-.483.221-.265.655-.483.966-.483.31 0 .745-.217.965-.482.22-.266.874-.483 1.453-.483.639 0 1.125-.19 1.238-.483.13-.339.66-.482 1.785-.482.88 0 1.69-.145 1.799-.322.11-.177 1.354-.322 2.765-.322 1.983 0 2.607-.11 2.75-.483.165-.428 13.727-.482 119.389-.482 105.662 0 119.224-.055 119.389-.483.101-.266.478-.483.836-.483.816 0 2.82-2.082 2.82-2.929 0-.347.217-.714.482-.816.428-.164.483-10.039.483-86.194 0-76.059.056-86.054.483-86.408.309-.257.483-.969.483-1.981 0-1.107.144-1.635.482-1.765.336-.128.483-.652.483-1.72 0-.972.177-1.682.483-1.936.265-.22.482-.872.482-1.448s.218-1.228.483-1.448c.266-.22.483-.655.483-.965 0-.311.217-.746.482-.966.266-.22.483-.655.483-.965 0-.311.217-.745.483-.966.265-.22.483-.645.483-.944 0-.299.434-.96.965-1.469.531-.509.965-1.132.965-1.385 0-.253.58-1.023 1.288-1.71.708-.687 1.287-1.482 1.287-1.766 0-1.065 5.109-5.598 6.31-5.598h1.091v5.436c0 4.536.08 5.467.483 5.622.265.102.487.443.493.758.016.849 1.12 2.022 1.902 2.022.375 0 .766.217.868.482.146.382.814.483 3.177.483h2.992l2.122-2.05 2.123-2.051V67.62c0-10.762-.026-10.661 2.695-10.661.86 0 1.565-.188 1.81-.483.335-.404 1.648-.482 8.094-.482 6.543 0 7.722.072 7.88.482.129.338.657.483 1.759.483 2.914 0 2.862-.195 2.862 10.658v9.372l1.993 2.052 1.993 2.053h2.956c2.234 0 3.053-.118 3.356-.483.22-.265.647-.482.948-.482.673 0 1.948-1.305 1.948-1.993 0-.277.217-.683.483-.903.389-.323.482-1.32.482-5.139 0-5.004.235-5.803 1.704-5.803.655 0 6.663 6.03 6.663 6.687 0 .264.362.815.805 1.226.442.41.804 1.012.804 1.339 0 .326.429.949.952 1.383.524.434.958 1.1.965 1.479.008.379.231.773.497.875.265.102.482.536.482.965 0 .429.218.864.483.965.266.102.483.462.483.8s.217.795.483 1.015c.265.22.482.872.482 1.448s.218 1.228.483 1.448c.305.253.483.963.483 1.931 0 .968.177 1.677.482 1.931.328.272.483 1.001.483 2.273 0 1.03.145 1.962.322 2.071.196.121.322 2.518.322 6.114 0 3.597-.126 5.994-.322 6.115-.177.109-.322 1.136-.322 2.281 0 1.555-.122 2.13-.483 2.268-.293.113-.482.599-.482 1.238 0 .579-.218 1.233-.483 1.453-.265.22-.483.872-.483 1.448s-.217 1.228-.482 1.448c-.266.221-.483.655-.483.966 0 .31-.217.745-.483.965-.265.221-.483.655-.483.966 0 .31-.217.745-.482.965-.266.22-.483.655-.483.965 0 .311-.217.745-.483.966-.265.22-.482.645-.482.944 0 .3-.435.961-.966 1.469-.531.509-.965 1.123-.965 1.365 0 .59-8.47 9.094-9.057 9.094-.255 0-1.103.652-1.884 1.448-.782.796-1.663 1.448-1.959 1.448-.295 0-.717.217-.938.483-.22.265-.654.483-.965.483-.311 0-.745.217-.965.482-.221.266-.655.483-.966.483-.31 0-.745.217-.965.483-.221.265-.642.482-.937.482-.679 0-3.568 2.908-3.568 3.592 0 .282-.218.693-.483.914-.305.253-.483.963-.483 1.93 0 .968.178 1.678.483 1.931.265.221.483.655.483.966 0 .31.217.745.482.965.266.22.483.65.483.955 0 .668.984 1.619 1.675 1.619.274 0 .679.218.899.483.569.685 4.681.685 4.944 0 .114-.298.604-.483 1.282-.483.603 0 1.277-.217 1.498-.482.22-.266.664-.483.985-.483.322 0 .675-.145.784-.322.11-.177.77-.322 1.468-.322h1.268v58.046c0 51.204-.057 58.093-.483 58.447-.335.278-.483 1.017-.483 2.418 0 1.497-.124 2.066-.482 2.203-.339.13-.483.658-.483 1.765 0 1.012-.174 1.724-.483 1.981-.265.22-.482.881-.482 1.468s-.145 1.158-.322 1.267c-.177.109-.322.462-.322.784s-.217.765-.483.986c-.265.22-.482.655-.482.965 0 .311-.218.745-.483.966-.266.22-.483.643-.483.939 0 .296-.428.894-.952 1.328-.523.435-.958 1.086-.965 1.448-.008.363-.442 1.014-.965 1.449-.524.434-.958 1.031-.966 1.328-.017.689-7.499 8.311-8.158 8.311-.272 0-.929.434-1.46.965-.531.531-1.167.965-1.413.965s-.863.435-1.372.966c-.509.531-1.17.965-1.469.965-.299 0-.724.217-.944.483-.221.265-.655.483-.966.483-.31 0-.745.217-.965.482-.22.266-.872.483-1.448.483s-1.228.217-1.448.483c-.221.265-.895.482-1.498.482-.678 0-1.168.185-1.282.483-.12.312-.618.483-1.404.483-.786 0-1.284.171-1.403.482-.144.374-.768.483-2.751.483-1.411 0-2.655.145-2.765.322-.132.214-36.782.322-108.909.322-96.239 0-108.757.055-109.111.483-.221.265-.644.482-.94.482-.642 0-2.922 2.251-2.922 2.885 0 .244-.198.672-.44.951-.657.759-.952 5.175-.346 5.175.286 0 .464.323.464.842 0 .56.432 1.261 1.288 2.092l1.287 1.249h110.811c111.475 0 117.668-.045 117.668-.853 0-.316.526-.434 1.931-.434 1.502 0 1.931-.107 1.931-.483 0-.348.357-.483 1.287-.483.929 0 1.287-.134 1.287-.482 0-.358.375-.483 1.448-.483s1.448-.125 1.448-.483c0-.321.322-.482.966-.482.643 0 .965-.161.965-.483 0-.358.376-.483 1.448-.483 1.073 0 1.448-.125 1.448-.482 0-.301.304-.483.805-.483.5 0 .804-.183.804-.483 0-.265.218-.483.483-.483.266 0 .483-.217.483-.482 0-.322.322-.483.965-.483.644 0 .966-.161.966-.483 0-.321.321-.482.965-.482.531 0 .965-.145.965-.322 0-.177.218-.322.483-.322.266 0 .483-.217.483-.483 0-.265.217-.482.482-.482.266 0 .483-.218.483-.483 0-.3.304-.483.805-.483.5 0 .804-.182.804-.482 0-.266.217-.483.483-.483.265 0 .483-.217.483-.483 0-.265.217-.483.482-.483.266 0 .483-.217.483-.482 0-.266.217-.483.483-.483.265 0 .482-.217.482-.483 0-.265.218-.482.483-.482.266 0 .483-.218.483-.483 0-.266.217-.483.482-.483.266 0 .483-.217.483-.483 0-.265.217-.482.483-.482.265 0 .483-.217.483-.483 0-.265.156-.483.347-.483.728 0 3.192-2.836 3.192-3.675 0-.523.179-.83.483-.83.266 0 .483-.217.483-.483 0-.265.217-.482.483-.482.265 0 .482-.217.482-.483 0-.265.217-.483.483-.483.322 0 .483-.321.483-.965 0-.644.161-.965.482-.965.301 0 .483-.304.483-.805 0-.501.182-.804.483-.804.265 0 .482-.218.482-.483 0-.266.218-.483.483-.483.322 0 .483-.322.483-.965 0-.644.161-.966.483-.966.321 0 .482-.322.482-.965 0-.644.161-.966.483-.966.358 0 .483-.375.483-1.448 0-.796.144-1.448.321-1.448.177 0 .322-.362.322-.804 0-.501.183-.805.483-.805.358 0 .483-.375.483-1.448s.125-1.448.482-1.448c.376 0 .483-.429.483-1.931s.107-1.931.483-1.931c.383 0 .482-.464.482-2.252 0-1.788.1-2.253.483-2.253.428 0 .483-7.58.483-66.291s.055-66.291.483-66.291c.321 0 .482-.322.482-.966 0-.531.165-.965.366-.965.201 0 .701-.362 1.111-.805.41-.442.897-.804 1.082-.804.186 0 .338-.435.338-.966 0-.643.16-.965.482-.965.266 0 .483-.217.483-.483 0-.265.145-.482.322-.482.177 0 .322-.435.322-.966 0-.643.16-.965.482-.965.266 0 .483-.217.483-.483 0-.265.217-.483.483-.483.321 0 .482-.321.482-.965 0-.644.161-.965.483-.965.3 0 .483-.304.483-.805 0-.5.182-.804.482-.804.322 0 .483-.322.483-.966 0-.643.161-.965.483-.965.322 0 .483-.322.483-.966 0-.643.16-.965.482-.965.358 0 .483-.375.483-1.448s.125-1.448.483-1.448c.348 0 .482-.358.482-1.287 0-.93.134-1.288.483-1.288.376 0 .483-.429.483-1.93 0-1.44.114-1.931.45-1.931 1.094 0 1.171-28.009.08-28.807-.373-.273-.53-.877-.53-2.041 0-1.256-.116-1.654-.483-1.654-.357 0-.483-.376-.483-1.448 0-1.073-.125-1.448-.482-1.448-.322 0-.483-.322-.483-.966 0-.643-.161-.965-.483-.965-.322 0-.482-.322-.482-.966 0-.643-.161-.965-.483-.965-.3 0-.483-.304-.483-.805 0-.5-.182-.804-.483-.804-.321 0-.482-.322-.482-.966 0-.643-.161-.965-.483-.965-.322 0-.483-.322-.483-.965 0-.644-.161-.966-.482-.966-.322 0-.483-.322-.483-.965 0-.644-.161-.966-.483-.966-.265 0-.482-.217-.482-.482 0-.266-.145-.483-.322-.483-.177 0-.322-.33-.322-.733 0-.718-.984-1.841-1.613-1.841-.175 0-.318-.218-.318-.483 0-.266-.217-.483-.483-.483-.321 0-.482-.322-.482-.965 0-.644-.161-.966-.483-.966-.265 0-.483-.217-.483-.482 0-.266-.217-.483-.482-.483-.266 0-.483-.217-.483-.483 0-.265-.217-.482-.483-.482-.265 0-.483-.218-.483-.483 0-.266-.217-.483-.482-.483-.266 0-.483-.217-.483-.483 0-.265-.217-.482-.483-.482-.265 0-.482-.217-.482-.483 0-.265-.218-.483-.483-.483-.266 0-.483-.155-.483-.344 0-.446-.818-1.265-1.264-1.265-.19 0-.345-.217-.345-.482 0-.266-.217-.483-.482-.483-.266 0-.483-.217-.483-.483 0-.322-.322-.482-.966-.482-.643 0-.965-.161-.965-.483 0-.266-.217-.483-.483-.483-.265 0-.482-.217-.482-.483 0-.321-.322-.482-.966-.482-.643 0-.965-.161-.965-.483 0-.265-.217-.483-.483-.483-.265 0-.483-.217-.483-.482 0-.301-.303-.483-.804-.483-.501 0-.805-.182-.805-.483 0-.322-.321-.482-.965-.482-.644 0-.965-.161-.965-.483 0-.266-.218-.483-.483-.483-.416 0-.483-1.09-.483-7.884 0-6.794.067-7.884.483-7.884.265 0 .483-.217.483-.483 0-.265.217-.483.482-.483.266 0 .483-.217.483-.482 0-.322.322-.483.965-.483.563 0 .966-.169.966-.406 0-.224.362-.679.804-1.011.461-.345.805-.929.805-1.363 0-.461.19-.76.483-.76.265 0 .482-.217.482-.483 0-.265.217-.482.483-.482.322 0 .483-.322.483-.966 0-.643.161-.965.482-.965.358 0 .483-.375.483-1.448s.125-1.448.483-1.448c.404 0 .482-.68.482-4.184s-.078-4.183-.482-4.183c-.349 0-.483-.358-.483-1.287 0-.93-.134-1.288-.483-1.288-.321 0-.482-.321-.482-.965 0-.644-.161-.965-.483-.965-.266 0-.483-.218-.483-.483 0-.266-.217-.483-.482-.483-.322 0-.483-.322-.483-.965 0-.644-.161-.966-.483-.966-.265 0-.483-.143-.483-.318 0-.629-1.123-1.612-1.841-1.612-.437 0-.733-.195-.733-.483 0-.322-.322-.483-.965-.483-.601 0-.966-.166-.966-.439 0-.616-2.115-.849-7.688-.844-5.383.004-7.115.209-7.115.843 0 .275-.363.44-.965.44-.644 0-.966.161-.966.483 0 .265-.217.483-.482.483-.266 0-.483.217-.483.482 0 .266-.217.483-.483.483-.265 0-.482.217-.482.483 0 .265-.218.482-.483.482-.266 0-.483.218-.483.483 0 .266-.217.483-.482.483-.266 0-.483.217-.483.483 0 .265-.217.482-.483.482-.322 0-.483.322-.483.966 0 .643-.16.965-.482.965-.301 0-.483.304-.483.805 0 .442-.145.804-.322.804-.179 0-.322.858-.322 1.931 0 1.502-.107 1.931-.482 1.931-.376 0-.483.429-.483 1.931 0 1.501.107 1.93.483 1.93.383 0 .482.465.482 2.253 0 1.287.138 2.253.322 2.253.177 0 .322.434.322.965 0 .644.161.965.483.965.322 0 .482.322.482.966 0 .643.161.965.483.965.266 0 .483.217.483.483 0 .265.164.483.365.483.201 0 .701.362 1.111.804.41.443.897.805 1.083.805.185 0 .337.217.337.482 0 .266.217.483.483.483.265 0 .482.217.482.483 0 .265.218.482.483.482.266 0 .483.218.483.483 0 .266.217.483.483.483.409 0 .482.786.482 5.149v5.148h-2.413c-1.931 0-2.414-.096-2.414-.482 0-.415-1.037-.483-7.401-.483-6.365 0-7.402.068-7.402.483 0 .386-.482.482-2.413.482h-2.414v-5.148c0-4.363.074-5.149.483-5.149.266 0 .483-.217.483-.483 0-.265.217-.483.482-.483.266 0 .483-.217.483-.482 0-.266.217-.483.483-.483.265 0 .483-.217.483-.483 0-.265.136-.482.302-.482.632 0 3.559-3.137 3.559-3.814 0-.38.145-.692.322-.692.177 0 .322-.434.322-.965 0-.644.161-.965.482-.965.37 0 .483-.408.483-1.736 0-1.246.136-1.788.483-1.921.366-.14.483-.733.483-2.448 0-1.796-.1-2.262-.483-2.262-.376 0-.483-.429-.483-1.931s-.107-1.931-.483-1.931c-.3 0-.482-.304-.482-.804 0-.443-.145-.805-.322-.805-.177 0-.322-.367-.322-.815 0-.448-.217-.898-.483-.999-.265-.102-.482-.387-.482-.634 0-.246-.217-.448-.483-.448-.265 0-.483-.217-.483-.483 0-.265-.217-.483-.482-.483-.266 0-.483-.217-.483-.482 0-.266-.217-.483-.483-.483-.265 0-.482-.217-.482-.483 0-.265-.218-.482-.483-.482-.266 0-.483-.218-.483-.483 0-.322-.322-.483-.965-.483-.601 0-.966-.166-.966-.439 0-.747-9.328-1.165-13.757-.615M282.733 108.85c.948.899 1.179 5.488.293 5.828-.426.163-.492 8.383-.563 70.428l-.082 70.244-108.527.081-108.528.081v-92.8l.7-.744c.798-.851 2.241-.984 2.84-.262.22.265.872.482 1.448.482s1.228.217 1.448.483c.256.309.969.483 1.98.483 1.108 0 1.635.144 1.765.482.129.336.653.483 1.721.483.972 0 1.682.177 1.935.483.221.265.872.482 1.448.482.577 0 1.228.218 1.449.483.256.309.968.483 1.98.483 1.107 0 1.635.144 1.765.483.119.311.617.482 1.403.482s1.284.172 1.404.483c.13.338.658.483 1.765.483 1.011 0 1.724.173 1.98.482.254.306.963.483 1.931.483.968 0 1.678.178 1.931.483.256.308.967.483 1.97.483.863 0 1.57.144 1.57.321 0 .177.489.322 1.087.322.597 0 1.267.217 1.487.483.253.305.963.483 1.931.483.967 0 1.677.177 1.931.482.256.309.968.483 1.98.483 1.107 0 1.635.144 1.765.483.132.344.671.482 1.886.482 1.215 0 1.754.138 1.887.483.114.298.603.483 1.282.483.603 0 1.277.217 1.497.482.254.306.964.483 1.931.483.968 0 1.678.178 1.931.483.254.305.964.483 1.936.483 1.068 0 1.591.147 1.72.482.133.347.676.483 1.931.483s1.798.136 1.931.483c.114.298.604.482 1.282.482.603 0 1.277.218 1.498.483.22.266.625.483.899.483.691 0 1.675.951 1.675 1.619 0 .305.217.735.483.955.265.221.482.655.482.966 0 .31.218.745.483.965.266.22.483.61.483.866 0 .656 3.889 4.605 4.536 4.605.294 0 .714.217.935.482.22.266.654.483.965.483.311 0 .745.217.965.483.28.337 1.023.482 2.463.482 1.537 0 2.11.124 2.248.483.102.266.514.483.916.483s.911-.217 1.131-.483c.278-.335 1.018-.483 2.419-.483 1.496 0 2.065-.124 2.203-.482.102-.266.461-.483.799-.483s.795-.217 1.015-.483c.221-.265.633-.482.917-.482.684 0 5.519-4.823 5.519-5.505 0-.292.217-.711.483-.931.265-.221.483-.677.483-1.015 0-.338.217-.698.482-.8.266-.102.483-.532.483-.955 0-.539.182-.77.604-.77.333 0 .785-.217 1.005-.483.253-.305.963-.483 1.931-.483.967 0 1.677-.177 1.931-.482.256-.309.968-.483 1.98-.483 1.107 0 1.635-.144 1.765-.483.121-.315.622-.482 1.448-.482s1.327-.168 1.448-.483c.129-.336.653-.483 1.721-.483.972 0 1.682-.177 1.935-.483.254-.305.964-.482 1.931-.482.968 0 1.678-.178 1.931-.483.254-.306.964-.483 1.936-.483 1.068 0 1.591-.147 1.72-.482.121-.316.623-.483 1.448-.483.826 0 1.327-.167 1.448-.483.13-.338.658-.482 1.765-.482 1.012 0 1.724-.174 1.981-.483.254-.307.965-.483 1.951-.483.853 0 1.64-.145 1.749-.322.11-.177.832-.321 1.605-.321.821 0 1.607-.201 1.889-.483.266-.266.91-.483 1.432-.483.522 0 1.129-.217 1.35-.483.253-.305.963-.482 1.93-.482.968 0 1.678-.178 1.931-.483.257-.309.969-.483 1.98-.483 1.108 0 1.636-.144 1.765-.482.133-.345.672-.483 1.887-.483 1.215 0 1.754-.138 1.886-.483.114-.298.604-.483 1.282-.483.604 0 1.277-.217 1.498-.482.253-.305.963-.483 1.931-.483.967 0 1.677-.177 1.93-.483.254-.305.964-.482 1.936-.482 1.068 0 1.592-.147 1.721-.483.114-.298.604-.483 1.282-.483.603 0 1.277-.217 1.497-.482.481-.579 1.971-.636 2.511-.097.296.296.386 9.454.386 39.26 0 25.701.109 38.874.322 38.874.176 0 .324.253.328.563.004.309.738 1.323 1.632 2.252l1.625 1.69h6.851l1.54-1.517c1.194-1.176 1.539-1.744 1.539-2.535 0-.56.217-1.199.483-1.419.425-.353.483-6.04.483-47.627 0-41.586.057-47.274.482-47.626.306-.254.483-.964.483-1.936 0-1.068.147-1.592.483-1.72.298-.115.482-.604.482-1.283 0-.603.218-1.277.483-1.497.266-.221.483-.872.483-1.448 0-.577.217-1.228.483-1.449.265-.22.482-.663.482-.985 0-.322.145-.675.322-.784.177-.11.322-.463.322-.785 0-.321.217-.765.483-.985.265-.221.482-.646.482-.945 0-.299.435-.96.966-1.469.531-.509.965-1.158.965-1.443 0-.285.428-.873.952-1.307.523-.434.958-1.028.965-1.319.019-.745 5.917-6.708 6.65-6.725.333-.007.96-.442 1.394-.965.434-.524 1.024-.952 1.311-.952.288 0 .863-.362 1.278-.805.416-.442.993-.804 1.283-.804.29 0 .944-.434 1.453-.965.508-.531 1.169-.966 1.469-.966.299 0 .724-.217.944-.483.22-.265.655-.482.966-.482.31 0 .745-.217.965-.483.22-.265.894-.483 1.498-.483.678 0 1.167-.184 1.282-.482.132-.345.671-.483 1.886-.483 1.215 0 1.754-.138 1.886-.483.286-.745 2.085-.598 2.971.242"/>
  </g>
</svg>
